<svg width="512" height="512" viewBox="0 0 512 512" fill="none" xmlns="http://www.w3.org/2000/svg">
<g clip-path="url(#clip0_7_5)">
<mask id="mask0_7_5" style="mask-type:alpha" maskUnits="userSpaceOnUse" x="36" y="-8" width="471" height="509">
<path fill-rule="evenodd" clip-rule="evenodd" d="M115.788 143.639C203.206 50.8016 264.965 24.9027 340.669 16.6151L506.023 -7.96887L472.156 211.175L281.739 364.357C295.073 440.382 222.132 493.99 169.339 499.011C116.545 504.031 85.8809 498.158 36.856 488.093L115.788 143.639ZM193.788 289.76L200.493 297.206L207.583 290.823C208.831 289.699 209.589 288.478 209.856 287.161C210.123 285.844 209.655 284.516 208.45 283.179C207.781 282.435 207.099 281.947 206.403 281.712C205.707 281.477 205.016 281.427 204.329 281.561C203.643 281.695 202.962 281.985 202.287 282.431C201.615 282.82 200.967 283.296 200.343 283.858L193.788 289.76ZM210.555 322.46L181.89 290.623L196.872 277.134C198.388 275.769 199.89 274.658 201.38 273.801C202.869 272.945 204.341 272.427 205.794 272.248C207.222 272.04 208.628 272.227 210.014 272.809C211.429 273.365 212.806 274.386 214.144 275.872C215.589 277.477 216.422 279.15 216.643 280.889C216.893 282.601 216.612 284.442 215.801 286.41C218.271 285.209 220.625 284.893 222.86 285.463C225.099 285.977 227.115 287.23 228.909 289.221C230.354 290.827 231.3 292.505 231.746 294.256C232.166 295.977 232.175 297.691 231.774 299.398C231.403 301.078 230.694 302.712 229.648 304.3C228.632 305.861 227.41 307.284 225.983 308.569L210.555 322.46ZM204.789 301.977L212.658 310.717L220.149 303.972C220.832 303.356 221.433 302.708 221.95 302.027C222.44 301.316 222.79 300.598 222.997 299.873C223.179 299.117 223.162 298.352 222.948 297.576C222.763 296.773 222.296 295.956 221.547 295.123C220.075 293.488 218.57 292.744 217.033 292.89C215.469 293.006 213.929 293.747 212.413 295.112L204.789 301.977ZM230.149 268.89C231.029 270.465 232.098 271.951 233.356 273.349C234.561 274.686 235.887 275.86 237.335 276.871C238.786 277.825 240.309 278.5 241.902 278.895C243.496 279.29 245.124 279.304 246.786 278.938C248.421 278.542 250.026 277.635 251.602 276.217C253.177 274.798 254.247 273.296 254.812 271.711C255.349 270.097 255.505 268.477 255.279 266.85C255.053 265.224 254.526 263.653 253.699 262.137C252.875 260.564 251.861 259.109 250.657 257.771C249.399 256.374 248.017 255.169 246.513 254.155C245.038 253.115 243.503 252.397 241.91 252.002C240.289 251.577 238.661 251.563 237.026 251.959C235.364 252.325 233.746 253.217 232.17 254.636C230.595 256.054 229.538 257.571 229 259.185C228.436 260.77 228.28 262.391 228.533 264.047C228.759 265.673 229.298 267.287 230.149 268.89ZM233.287 285.198C230.754 283.819 228.443 281.97 226.356 279.652C224.214 277.274 222.591 274.753 221.484 272.089C220.351 269.396 219.77 266.689 219.743 263.968C219.715 261.248 220.28 258.587 221.436 255.985C222.621 253.356 224.433 250.945 226.871 248.75C229.338 246.528 231.926 244.979 234.634 244.101C237.342 243.223 240.048 242.94 242.751 243.252C245.453 243.564 248.085 244.424 250.645 245.832C253.178 247.211 255.516 249.09 257.657 251.468C259.745 253.787 261.342 256.278 262.448 258.941C263.528 261.575 264.068 264.238 264.069 266.929C264.07 269.619 263.492 272.266 262.336 274.867C261.153 277.439 259.328 279.836 256.861 282.058C254.424 284.252 251.849 285.817 249.138 286.751C246.429 287.629 243.737 287.927 241.061 287.645C238.385 287.363 235.794 286.547 233.287 285.198ZM276.655 262.944L247.989 231.107L254.989 224.804L278.355 250.755L293.872 236.783L299.172 242.669L276.655 262.944ZM306.037 236.487L282.671 210.537L273.129 219.128L267.83 213.243L293.914 189.756L299.214 195.642L289.672 204.233L313.038 230.184L306.037 236.487Z" fill="black"/>
</mask>
<g mask="url(#mask0_7_5)">
<path fill-rule="evenodd" clip-rule="evenodd" d="M115.775 143.59C115.776 143.589 115.778 143.589 104.591 110.568C93.405 77.5477 93.4091 77.5463 93.4143 77.5445L93.663 77.4606C93.8178 77.4084 94.0409 77.3333 94.3304 77.2363C94.9089 77.0423 95.7522 76.7604 96.8437 76.3984C99.0264 75.6744 102.203 74.6289 106.239 73.3222C114.31 70.7096 125.834 67.0479 139.743 62.8196C167.502 54.3814 205.033 43.6033 243.7 34.4066C282.006 25.2956 322.958 17.3603 357.051 15.2033C373.939 14.1348 391.116 14.3363 406.195 17.4418C420.155 20.3166 440.113 27.3075 451.405 46.5047C460.007 61.1298 458.248 76.188 455.475 85.8829C452.678 95.6551 447.61 104.72 442.517 112.396C432.216 127.932 416.74 145.221 399.527 162.736C371.965 190.78 335.766 223.527 299.408 256.414C290.069 264.863 280.718 273.322 271.502 281.714C225.4 323.682 182.683 363.901 155.755 396.513C144.461 410.19 137.593 420.607 134.083 427.833C140.851 430.536 149.39 431.397 160.474 429.849C176.857 427.564 195.622 420.324 214.528 410.309C233.123 400.46 250.067 388.889 262.505 379.625C268.673 375.031 273.613 371.092 276.962 368.347C278.634 366.977 279.901 365.911 280.717 365.215C281.124 364.867 281.421 364.612 281.596 364.46L281.769 364.309L281.771 364.307C281.765 364.311 281.759 364.317 304.809 390.475C327.859 416.633 327.851 416.639 327.843 416.644L327.784 416.698L327.66 416.808C327.561 416.894 327.431 417.007 327.27 417.147C326.949 417.425 326.503 417.81 325.937 418.29C324.807 419.252 323.204 420.603 321.171 422.269C317.109 425.598 311.312 430.215 304.156 435.545C289.947 446.127 269.912 459.88 247.169 471.927C224.736 483.808 197.805 495.044 170.11 498.907C141.98 502.834 110.202 499.417 83.0518 478.086C71.834 469.271 64.6925 457.116 62.5348 443.205C60.5473 430.393 63.1125 418.386 66.578 408.688C73.3465 389.746 87.0109 370.254 101.988 352.115C132.585 315.061 179.021 271.607 224.561 230.151C234.297 221.29 244.001 212.51 253.562 203.86C289.714 171.149 323.821 140.291 349.796 113.861C361.03 102.43 369.989 92.5704 376.611 84.3611C372.202 84.3021 367.156 84.431 361.454 84.7918C333.354 86.5696 296.982 93.4061 259.833 102.242C223.045 110.992 186.988 121.336 160.023 129.533C146.571 133.622 135.449 137.156 127.714 139.66C123.848 140.912 120.832 141.905 118.798 142.58C117.781 142.917 117.009 143.175 116.501 143.345L115.936 143.535L115.775 143.59ZM396.159 86.9049C396.151 86.9093 396.039 86.8639 395.848 86.7557C396.071 86.8464 396.167 86.9005 396.159 86.9049Z" fill="#EBBD14"/>
<path fill-rule="evenodd" clip-rule="evenodd" d="M115.775 143.59C115.776 143.589 115.778 143.589 104.591 110.568C93.405 77.5477 93.4091 77.5463 93.4143 77.5445L93.663 77.4606C93.8178 77.4084 94.0409 77.3333 94.3304 77.2363C94.9089 77.0423 95.7522 76.7604 96.8437 76.3984C99.0264 75.6744 102.203 74.6289 106.239 73.3222C114.31 70.7096 125.834 67.0479 139.743 62.8196C167.502 54.3814 205.033 43.6033 243.7 34.4066C282.006 25.2956 322.958 17.3603 357.051 15.2033C373.939 14.1348 391.116 14.3363 406.195 17.4418C420.155 20.3166 440.113 27.3075 451.405 46.5047C460.007 61.1298 458.248 76.188 455.475 85.8829C452.678 95.6551 447.61 104.72 442.517 112.396C432.216 127.932 416.74 145.221 399.527 162.736C371.965 190.78 335.766 223.527 299.408 256.414C290.069 264.863 280.718 273.322 271.502 281.714C225.4 323.682 182.683 363.901 155.755 396.513C144.461 410.19 137.593 420.607 134.083 427.833C140.851 430.536 149.39 431.397 160.474 429.849C176.857 427.564 195.622 420.324 214.528 410.309C233.123 400.46 250.067 388.889 262.505 379.625C268.673 375.031 273.613 371.092 276.962 368.347C278.634 366.977 279.901 365.911 280.717 365.215C281.124 364.867 281.421 364.612 281.596 364.46L281.769 364.309L281.771 364.307C281.765 364.311 281.759 364.317 304.809 390.475C327.859 416.633 327.851 416.639 327.843 416.644L327.784 416.698L327.66 416.808C327.561 416.894 327.431 417.007 327.27 417.147C326.949 417.425 326.503 417.81 325.937 418.29C324.807 419.252 323.204 420.603 321.171 422.269C317.109 425.598 311.312 430.215 304.156 435.545C289.947 446.127 269.912 459.88 247.169 471.927C224.736 483.808 197.805 495.044 170.11 498.907C141.98 502.834 110.202 499.417 83.0518 478.086C71.834 469.271 64.6925 457.116 62.5348 443.205C60.5473 430.393 63.1125 418.386 66.578 408.688C73.3465 389.746 87.0109 370.254 101.988 352.115C132.585 315.061 179.021 271.607 224.561 230.151C234.297 221.29 244.001 212.51 253.562 203.86C289.714 171.149 323.821 140.291 349.796 113.861C361.03 102.43 369.989 92.5704 376.611 84.3611C372.202 84.3021 367.156 84.431 361.454 84.7918C333.354 86.5696 296.982 93.4061 259.833 102.242C223.045 110.992 186.988 121.336 160.023 129.533C146.571 133.622 135.449 137.156 127.714 139.66C123.848 140.912 120.832 141.905 118.798 142.58C117.781 142.917 117.009 143.175 116.501 143.345L115.936 143.535L115.775 143.59ZM396.159 86.9049C396.151 86.9093 396.039 86.8639 395.848 86.7557C396.071 86.8464 396.167 86.9005 396.159 86.9049Z" fill="url(#paint0_linear_7_5)"/>
<path d="M434.303 99.0451C426.335 85.0996 390.574 85.3665 376.629 84.3704C353.995 111.233 336.685 127.293 299.789 161.8H400.436C420.358 141.447 442.272 112.991 434.303 99.0451Z" fill="url(#paint1_linear_7_5)" fill-opacity="0.2"/>
<path d="M224.125 325.162C163.362 381.94 137.886 418.023 134.475 427.761C96.6969 413.22 99.611 352.623 126.307 324.732L224.125 325.162Z" fill="url(#paint2_linear_7_5)" fill-opacity="0.2"/>
</g>
</g>
<defs>
<linearGradient id="paint0_linear_7_5" x1="242.325" y1="47.0992" x2="242.325" y2="464.687" gradientUnits="userSpaceOnUse">
<stop stop-color="#EFBA32"/>
<stop offset="1" stop-color="#EFB032"/>
</linearGradient>
<linearGradient id="paint1_linear_7_5" x1="373.043" y1="83.1074" x2="373.043" y2="161.8" gradientUnits="userSpaceOnUse">
<stop/>
<stop offset="1" stop-opacity="0"/>
</linearGradient>
<linearGradient id="paint2_linear_7_5" x1="145.93" y1="355.045" x2="145.93" y2="427.761" gradientUnits="userSpaceOnUse">
<stop stop-color="#090909" stop-opacity="0"/>
<stop offset="1" stop-color="#090909"/>
</linearGradient>
<clipPath id="clip0_7_5">
<rect width="512" height="512" fill="white"/>
</clipPath>
</defs>
</svg>
