<svg width="257" height="257" viewBox="0 0 257 257" fill="none" xmlns="http://www.w3.org/2000/svg">
<path d="M37 48.716C37 48.716 196.5 6.71612 211.5 32.2161C226.5 57.716 17.5 198.716 52.5 226.216C87.5 253.716 147 191.716 147 191.716" stroke="#EFBA32" stroke-width="35"/>
<path d="M37 48.716C37 48.716 196.5 6.71612 211.5 32.2161C226.5 57.716 17.5 198.716 52.5 226.216C87.5 253.716 147 191.716 147 191.716" stroke="url(#paint0_linear_2_7)" stroke-opacity="0.2" stroke-width="35"/>
<path d="M218 49.716C214 42.716 196.5 42.216 189.5 41.716C178.385 54.5405 169.111 63.6537 150.5 81.216H200.5C210.414 71.8237 222 56.716 218 49.716Z" fill="url(#paint1_linear_2_7)" fill-opacity="0.1"/>
<path d="M112.5 163.216C82 191.716 69.2124 209.828 67.5 214.716C48.5373 207.417 47.9158 189.205 55 172.716L112.5 163.216Z" fill="url(#paint2_linear_2_7)" fill-opacity="0.1"/>
<path d="M153.586 167.126C146.496 173.614 137.43 176.859 126.387 176.859C112.723 176.859 101.98 172.476 94.1602 163.71C86.3398 154.902 82.4297 142.827 82.4297 127.488C82.4297 110.902 86.877 98.1184 95.7715 89.1379C103.506 81.3176 113.346 77.4074 125.291 77.4074C141.275 77.4074 152.963 82.6496 160.354 93.134C164.436 99.0207 166.627 104.929 166.928 110.859H147.076C145.787 106.304 144.133 102.866 142.113 100.546C138.504 96.4211 133.154 94.3586 126.064 94.3586C118.846 94.3586 113.152 97.2805 108.984 103.124C104.816 108.925 102.732 117.154 102.732 127.81C102.732 138.466 104.924 146.458 109.307 151.786C113.732 157.071 119.34 159.714 126.129 159.714C133.09 159.714 138.396 157.437 142.049 152.882C144.068 150.433 145.744 146.759 147.076 141.861H166.734C165.016 152.216 160.633 160.638 153.586 167.126Z" fill="#091478"/>
<path d="M153.586 167.126C146.496 173.614 137.43 176.859 126.387 176.859C112.723 176.859 101.98 172.476 94.1602 163.71C86.3398 154.902 82.4297 142.827 82.4297 127.488C82.4297 110.902 86.877 98.1184 95.7715 89.1379C103.506 81.3176 113.346 77.4074 125.291 77.4074C141.275 77.4074 152.963 82.6496 160.354 93.134C164.436 99.0207 166.627 104.929 166.928 110.859H147.076C145.787 106.304 144.133 102.866 142.113 100.546C138.504 96.4211 133.154 94.3586 126.064 94.3586C118.846 94.3586 113.152 97.2805 108.984 103.124C104.816 108.925 102.732 117.154 102.732 127.81C102.732 138.466 104.924 146.458 109.307 151.786C113.732 157.071 119.34 159.714 126.129 159.714C133.09 159.714 138.396 157.437 142.049 152.882C144.068 150.433 145.744 146.759 147.076 141.861H166.734C165.016 152.216 160.633 160.638 153.586 167.126Z" fill="url(#paint3_linear_2_7)" fill-opacity="0.2"/>
<path d="M153.586 167.126L156.286 170.077L156.295 170.069L153.586 167.126ZM94.1602 163.71L91.1689 166.366L91.1754 166.373L94.1602 163.71ZM95.7715 89.1379L98.6135 91.9527L98.6155 91.9507L95.7715 89.1379ZM160.354 93.134L163.641 90.8547L163.632 90.842L163.623 90.8294L160.354 93.134ZM166.928 110.859V114.859H171.136L170.923 110.656L166.928 110.859ZM147.076 110.859L143.227 111.948L144.051 114.859H147.076V110.859ZM142.113 100.546L145.131 97.92L145.124 97.9121L142.113 100.546ZM108.984 103.124L112.233 105.458L112.241 105.447L108.984 103.124ZM109.307 151.786L106.217 154.327L106.229 154.341L106.24 154.354L109.307 151.786ZM142.049 152.882L138.963 150.337L138.945 150.358L138.928 150.38L142.049 152.882ZM147.076 141.861V137.861H144.019L143.216 140.811L147.076 141.861ZM166.734 141.861L170.68 142.515L171.453 137.861H166.734V141.861ZM150.885 164.175C144.643 169.888 136.59 172.859 126.387 172.859V180.859C138.27 180.859 148.349 177.341 156.286 170.077L150.885 164.175ZM126.387 172.859C113.658 172.859 104.08 168.82 97.1449 161.047L91.1754 166.373C99.8811 176.131 111.787 180.859 126.387 180.859V172.859ZM97.1514 161.055C90.1572 153.176 86.4297 142.151 86.4297 127.488H78.4297C78.4297 143.503 82.5225 156.627 91.1689 166.366L97.1514 161.055ZM86.4297 127.488C86.4297 111.614 90.6707 99.9722 98.6135 91.9527L92.9295 86.3231C83.0832 96.2645 78.4297 110.189 78.4297 127.488H86.4297ZM98.6155 91.9507C105.53 84.9593 114.313 81.4074 125.291 81.4074V73.4074C112.379 73.4074 101.482 77.6758 92.9275 86.3251L98.6155 91.9507ZM125.291 81.4074C140.334 81.4074 150.628 86.2806 157.084 95.4386L163.623 90.8294C155.297 79.0186 142.217 73.4074 125.291 73.4074V81.4074ZM157.066 95.4133C160.812 100.815 162.677 106.017 162.933 111.061L170.923 110.656C170.577 103.841 168.059 97.2268 163.641 90.8547L157.066 95.4133ZM166.928 106.859H147.076V114.859H166.928V106.859ZM150.925 109.769C149.553 104.923 147.689 100.86 145.131 97.92L139.096 103.172C140.576 104.873 142.021 107.684 143.227 111.948L150.925 109.769ZM145.124 97.9121C140.545 92.6798 133.947 90.3586 126.064 90.3586V98.3586C132.362 98.3586 136.462 100.162 139.103 103.18L145.124 97.9121ZM126.064 90.3586C117.562 90.3586 110.652 93.8981 105.728 100.802L112.241 105.447C115.653 100.663 120.13 98.3586 126.064 98.3586V90.3586ZM105.736 100.79C100.892 107.531 98.7324 116.706 98.7324 127.81H106.732C106.732 117.601 108.74 110.319 112.233 105.458L105.736 100.79ZM98.7324 127.81C98.7324 138.913 101 147.984 106.217 154.327L112.396 149.245C108.848 144.932 106.732 138.019 106.732 127.81H98.7324ZM106.24 154.354C111.412 160.531 118.135 163.714 126.129 163.714V155.714C120.545 155.714 116.053 153.612 112.373 149.218L106.24 154.354ZM126.129 163.714C134.044 163.714 140.609 161.071 145.169 155.384L138.928 150.38C136.184 153.802 132.136 155.714 126.129 155.714V163.714ZM145.135 155.427C147.668 152.355 149.534 148.065 150.936 142.91L143.216 140.811C141.954 145.453 140.469 148.51 138.963 150.337L145.135 155.427ZM147.076 145.861H166.734V137.861H147.076V145.861ZM162.788 141.206C161.201 150.772 157.204 158.357 150.877 164.184L156.295 170.069C164.061 162.918 168.831 153.661 170.68 142.515L162.788 141.206Z" fill="white" fill-opacity="0.3"/>
<path d="M153.586 167.126L156.286 170.077L156.295 170.069L153.586 167.126ZM94.1602 163.71L91.1689 166.366L91.1754 166.373L94.1602 163.71ZM95.7715 89.1379L98.6135 91.9527L98.6155 91.9507L95.7715 89.1379ZM160.354 93.134L163.641 90.8547L163.632 90.842L163.623 90.8294L160.354 93.134ZM166.928 110.859V114.859H171.136L170.923 110.656L166.928 110.859ZM147.076 110.859L143.227 111.948L144.051 114.859H147.076V110.859ZM142.113 100.546L145.131 97.92L145.124 97.9121L142.113 100.546ZM108.984 103.124L112.233 105.458L112.241 105.447L108.984 103.124ZM109.307 151.786L106.217 154.327L106.229 154.341L106.24 154.354L109.307 151.786ZM142.049 152.882L138.963 150.337L138.945 150.358L138.928 150.38L142.049 152.882ZM147.076 141.861V137.861H144.019L143.216 140.811L147.076 141.861ZM166.734 141.861L170.68 142.515L171.453 137.861H166.734V141.861ZM150.885 164.175C144.643 169.888 136.59 172.859 126.387 172.859V180.859C138.27 180.859 148.349 177.341 156.286 170.077L150.885 164.175ZM126.387 172.859C113.658 172.859 104.08 168.82 97.1449 161.047L91.1754 166.373C99.8811 176.131 111.787 180.859 126.387 180.859V172.859ZM97.1514 161.055C90.1572 153.176 86.4297 142.151 86.4297 127.488H78.4297C78.4297 143.503 82.5225 156.627 91.1689 166.366L97.1514 161.055ZM86.4297 127.488C86.4297 111.614 90.6707 99.9722 98.6135 91.9527L92.9295 86.3231C83.0832 96.2645 78.4297 110.189 78.4297 127.488H86.4297ZM98.6155 91.9507C105.53 84.9593 114.313 81.4074 125.291 81.4074V73.4074C112.379 73.4074 101.482 77.6758 92.9275 86.3251L98.6155 91.9507ZM125.291 81.4074C140.334 81.4074 150.628 86.2806 157.084 95.4386L163.623 90.8294C155.297 79.0186 142.217 73.4074 125.291 73.4074V81.4074ZM157.066 95.4133C160.812 100.815 162.677 106.017 162.933 111.061L170.923 110.656C170.577 103.841 168.059 97.2268 163.641 90.8547L157.066 95.4133ZM166.928 106.859H147.076V114.859H166.928V106.859ZM150.925 109.769C149.553 104.923 147.689 100.86 145.131 97.92L139.096 103.172C140.576 104.873 142.021 107.684 143.227 111.948L150.925 109.769ZM145.124 97.9121C140.545 92.6798 133.947 90.3586 126.064 90.3586V98.3586C132.362 98.3586 136.462 100.162 139.103 103.18L145.124 97.9121ZM126.064 90.3586C117.562 90.3586 110.652 93.8981 105.728 100.802L112.241 105.447C115.653 100.663 120.13 98.3586 126.064 98.3586V90.3586ZM105.736 100.79C100.892 107.531 98.7324 116.706 98.7324 127.81H106.732C106.732 117.601 108.74 110.319 112.233 105.458L105.736 100.79ZM98.7324 127.81C98.7324 138.913 101 147.984 106.217 154.327L112.396 149.245C108.848 144.932 106.732 138.019 106.732 127.81H98.7324ZM106.24 154.354C111.412 160.531 118.135 163.714 126.129 163.714V155.714C120.545 155.714 116.053 153.612 112.373 149.218L106.24 154.354ZM126.129 163.714C134.044 163.714 140.609 161.071 145.169 155.384L138.928 150.38C136.184 153.802 132.136 155.714 126.129 155.714V163.714ZM145.135 155.427C147.668 152.355 149.534 148.065 150.936 142.91L143.216 140.811C141.954 145.453 140.469 148.51 138.963 150.337L145.135 155.427ZM147.076 145.861H166.734V137.861H147.076V145.861ZM162.788 141.206C161.201 150.772 157.204 158.357 150.877 164.184L156.295 170.069C164.061 162.918 168.831 153.661 170.68 142.515L162.788 141.206Z" fill="url(#paint4_linear_2_7)" fill-opacity="0.1"/>
<defs>
<linearGradient id="paint0_linear_2_7" x1="121.636" y1="23.6416" x2="121.636" y2="233.251" gradientUnits="userSpaceOnUse">
<stop stop-color="white" stop-opacity="0"/>
<stop offset="1" stop-color="white"/>
</linearGradient>
<linearGradient id="paint1_linear_2_7" x1="187.25" y1="41.716" x2="187.25" y2="81.216" gradientUnits="userSpaceOnUse">
<stop/>
<stop offset="1" stop-opacity="0"/>
</linearGradient>
<linearGradient id="paint2_linear_2_7" x1="73.25" y1="178.216" x2="73.25" y2="214.716" gradientUnits="userSpaceOnUse">
<stop stop-color="#090909" stop-opacity="0"/>
<stop offset="1" stop-color="#090909"/>
</linearGradient>
<linearGradient id="paint3_linear_2_7" x1="124.5" y1="52.216" x2="124.5" y2="204.216" gradientUnits="userSpaceOnUse">
<stop stop-color="white"/>
<stop offset="1" stop-color="white" stop-opacity="0"/>
</linearGradient>
<linearGradient id="paint4_linear_2_7" x1="124.5" y1="52.216" x2="124.5" y2="204.216" gradientUnits="userSpaceOnUse">
<stop stop-color="white"/>
<stop offset="1" stop-color="white" stop-opacity="0"/>
</linearGradient>
</defs>
</svg>
